<mxfile host="app.diagrams.net" modified="2021-10-20T15:23:26.148Z" agent="5.0 (Windows NT 10.0; Win64; x64) AppleWebKit/537.36 (KHTML, like Gecko) Chrome/94.0.4606.81 Safari/537.36" etag="d5OYphKeW9iF90vc5U3g" version="15.5.6" type="github">
  <diagram id="kgpKYQtTHZ0yAKxKKP6v" name="Page-1">
    <mxGraphModel dx="1826" dy="827" grid="1" gridSize="10" guides="1" tooltips="1" connect="1" arrows="1" fold="1" page="1" pageScale="1" pageWidth="850" pageHeight="1100" math="0" shadow="0">
      <root>
        <mxCell id="0" />
        <mxCell id="1" parent="0" />
        <mxCell id="4cA7va0PqUtZ-8S5xUUY-121" value="loop" style="shape=umlFrame;whiteSpace=wrap;html=1;fontSize=13;align=center;" vertex="1" parent="1">
          <mxGeometry x="910" y="460.5" width="500" height="180" as="geometry" />
        </mxCell>
        <UserObject label="" lucidchartObjectId="Yu5M4GIAFP0a" id="4cA7va0PqUtZ-8S5xUUY-1">
          <mxCell style="html=1;jettySize=18;whiteSpace=wrap;fontSize=13;fontFamily=helvetica;strokeColor=#333333;strokeOpacity=100;dashed=1;fixDash=1;dashPattern=16 6;strokeWidth=0.8;rounded=0;startArrow=none;;endArrow=none;;exitX=0.5;exitY=1;exitPerimeter=0;" edge="1" parent="1" source="4cA7va0PqUtZ-8S5xUUY-85">
            <mxGeometry width="100" height="100" relative="1" as="geometry">
              <Array as="points" />
              <mxPoint x="524" y="930" as="targetPoint" />
            </mxGeometry>
          </mxCell>
        </UserObject>
        <UserObject label="" lucidchartObjectId="Yu5MXQ6BOCr2" id="4cA7va0PqUtZ-8S5xUUY-3">
          <mxCell style="html=1;jettySize=18;whiteSpace=wrap;fontSize=13;fontFamily=helvetica;strokeColor=#333333;strokeOpacity=100;dashed=1;fixDash=1;dashPattern=16 6;strokeWidth=0.8;rounded=1;arcSize=24;edgeStyle=orthogonalEdgeStyle;startArrow=none;;endArrow=none;;exitX=0.5;exitY=1;exitPerimeter=0;" edge="1" parent="1" source="4cA7va0PqUtZ-8S5xUUY-88">
            <mxGeometry width="100" height="100" relative="1" as="geometry">
              <Array as="points" />
              <mxPoint x="791" y="930" as="targetPoint" />
            </mxGeometry>
          </mxCell>
        </UserObject>
        <UserObject label="" lucidchartObjectId="Yu5M5Qxgzhy9" id="4cA7va0PqUtZ-8S5xUUY-5">
          <mxCell style="html=1;jettySize=18;whiteSpace=wrap;fontSize=13;fontFamily=helvetica;strokeColor=#333333;strokeOpacity=100;dashed=1;fixDash=1;dashPattern=16 6;strokeWidth=0.8;rounded=1;arcSize=24;edgeStyle=orthogonalEdgeStyle;startArrow=none;;endArrow=none;;exitX=0.5;exitY=1;exitPerimeter=0;" edge="1" parent="1" source="4cA7va0PqUtZ-8S5xUUY-97">
            <mxGeometry width="100" height="100" relative="1" as="geometry">
              <Array as="points" />
              <mxPoint x="1065" y="930" as="targetPoint" />
            </mxGeometry>
          </mxCell>
        </UserObject>
        <UserObject label="Actor" lucidchartObjectId="Yu5MdgyV5tNR" id="4cA7va0PqUtZ-8S5xUUY-12">
          <mxCell style="html=1;overflow=block;blockSpacing=1;whiteSpace=wrap;shape=umlActor;labelPosition=center;verticalLabelPosition=bottom;verticalAlign=top;whiteSpace=nowrap;whiteSpace=wrap;fontSize=13.3;fontColor=#333333;fontStyle=2;align=center;spacing=0;strokeColor=#333333;strokeOpacity=100;fillOpacity=100;rounded=1;absoluteArcSize=1;arcSize=12;fillColor=#ffffff;strokeWidth=0.8;" vertex="1" parent="1">
            <mxGeometry x="258" y="193" width="60" height="135" as="geometry" />
          </mxCell>
        </UserObject>
        <UserObject label="" lucidchartObjectId="Yu5Migy3NWk_" id="4cA7va0PqUtZ-8S5xUUY-13">
          <mxCell style="html=1;jettySize=18;whiteSpace=wrap;fontSize=13;strokeColor=#333333;strokeOpacity=100;dashed=1;fixDash=1;dashPattern=16 6;strokeWidth=0.8;rounded=1;arcSize=10;edgeStyle=orthogonalEdgeStyle;startArrow=none;;endArrow=none;;exitX=0.5;exitY=0.532;exitPerimeter=0;" edge="1" parent="1" source="4cA7va0PqUtZ-8S5xUUY-12">
            <mxGeometry width="100" height="100" relative="1" as="geometry">
              <Array as="points" />
              <mxPoint x="288" y="930" as="targetPoint" />
            </mxGeometry>
          </mxCell>
        </UserObject>
        <mxCell id="4cA7va0PqUtZ-8S5xUUY-20" value="" style="group;dropTarget=0;" vertex="1" parent="1">
          <mxGeometry x="340" y="51" width="640" height="45" as="geometry" />
        </mxCell>
        <UserObject label="%filename%" placeholders="1" lucidchartObjectId="tlGR~2x1427q" id="4cA7va0PqUtZ-8S5xUUY-21">
          <mxCell style="points=[[0.318,0.967,0],[0.693,0.967,0]];html=1;overflow=block;blockSpacing=1;whiteSpace=wrap;;whiteSpace=wrap;fontSize=19.7;fontColor=#a9afb8;fontStyle=1;align=center;spacingLeft=7;spacingRight=7;spacingTop=2;spacing=3;strokeOpacity=0;fillOpacity=0;rounded=1;absoluteArcSize=1;arcSize=12;fillColor=#ffffff;strokeWidth=1.5;" vertex="1" parent="4cA7va0PqUtZ-8S5xUUY-20">
            <mxGeometry width="640" height="31" as="geometry" />
          </mxCell>
        </UserObject>
        <UserObject label="%creatorName%  |  %date{mmmm d, yyyy}%" placeholders="1" lucidchartObjectId="tlGRSY_k74eF" id="4cA7va0PqUtZ-8S5xUUY-22">
          <mxCell style="html=1;overflow=block;blockSpacing=1;whiteSpace=wrap;;whiteSpace=wrap;fontSize=11.5;fontColor=#a9afb8;align=center;spacingLeft=7;spacingRight=7;spacingTop=2;spacing=3;strokeOpacity=0;fillOpacity=0;rounded=1;absoluteArcSize=1;arcSize=12;fillColor=#ffffff;strokeWidth=1.5;" vertex="1" parent="4cA7va0PqUtZ-8S5xUUY-20">
            <mxGeometry y="31" width="640" height="14" as="geometry" />
          </mxCell>
        </UserObject>
        <UserObject label="" lucidchartObjectId="tlGRojDnJgnU" id="4cA7va0PqUtZ-8S5xUUY-23">
          <mxCell style="html=1;jettySize=18;whiteSpace=wrap;fontSize=13;fontFamily=Helvetica;strokeColor=#a9afb8;strokeOpacity=100;strokeWidth=1.5;rounded=0;startArrow=none;;endArrow=none;;exitX=0.318;exitY=0.967;exitPerimeter=0;entryX=0.693;entryY=0.967;entryPerimeter=0;" edge="1" parent="4cA7va0PqUtZ-8S5xUUY-20" source="4cA7va0PqUtZ-8S5xUUY-21" target="4cA7va0PqUtZ-8S5xUUY-21">
            <mxGeometry width="100" height="100" relative="1" as="geometry">
              <Array as="points">
                <mxPoint x="203" y="50" generated="1" />
                <mxPoint x="444" y="50" generated="1" />
              </Array>
            </mxGeometry>
          </mxCell>
        </UserObject>
        <UserObject label="" lucidchartObjectId="hhikuZTCjd7b" id="4cA7va0PqUtZ-8S5xUUY-46">
          <mxCell style="html=1;jettySize=18;whiteSpace=wrap;fontSize=13;strokeColor=#333333;strokeOpacity=100;dashed=1;fixDash=1;dashPattern=16 6;strokeWidth=0.8;rounded=1;arcSize=24;edgeStyle=orthogonalEdgeStyle;startArrow=none;;endArrow=block;endFill=1;;exitX=-0.012;exitY=0.982;exitPerimeter=0;" edge="1" parent="1">
            <mxGeometry width="100" height="100" relative="1" as="geometry">
              <Array as="points">
                <mxPoint x="399" y="889" />
                <mxPoint x="288" y="890" />
              </Array>
              <mxPoint x="288" y="890" as="targetPoint" />
              <mxPoint x="509.6399999999999" y="889.3779999999999" as="sourcePoint" />
            </mxGeometry>
          </mxCell>
        </UserObject>
        <UserObject label="saveData(filePath, content)" lucidchartObjectId="Yu5M0A2JVvTe" id="4cA7va0PqUtZ-8S5xUUY-87">
          <mxCell style="html=1;jettySize=18;fontSize=13;strokeColor=#333333;strokeOpacity=100;strokeWidth=0.8;rounded=1;arcSize=10;edgeStyle=orthogonalEdgeStyle;startArrow=none;;endArrow=block;endFill=1;;entryX=1;entryY=0;entryDx=0;entryDy=0;" edge="1" parent="1" target="4cA7va0PqUtZ-8S5xUUY-86">
            <mxGeometry x="0.1111" y="80" width="100" height="100" relative="1" as="geometry">
              <Array as="points">
                <mxPoint x="580" y="730" />
                <mxPoint x="580" y="760" />
              </Array>
              <mxPoint x="540" y="730" as="sourcePoint" />
              <mxPoint x="760.0000000000002" y="730.0000000000002" as="targetPoint" />
              <mxPoint as="offset" />
            </mxGeometry>
          </mxCell>
        </UserObject>
        <mxCell id="4cA7va0PqUtZ-8S5xUUY-105" value="convertDatabaseToString()" style="edgeStyle=orthogonalEdgeStyle;orthogonalLoop=1;jettySize=auto;html=1;exitX=1;exitY=0.25;exitDx=0;exitDy=0;entryX=0;entryY=0;entryDx=0;entryDy=0;fontSize=13;endArrow=block;endFill=1;strokeColor=#333333;strokeWidth=0.8;" edge="1" parent="1">
          <mxGeometry x="0.0227" y="-10" relative="1" as="geometry">
            <mxPoint x="806.5" y="433.625" as="sourcePoint" />
            <mxPoint x="1050.5" y="431" as="targetPoint" />
            <Array as="points">
              <mxPoint x="806" y="431" />
            </Array>
            <mxPoint as="offset" />
          </mxGeometry>
        </mxCell>
        <mxCell id="4cA7va0PqUtZ-8S5xUUY-88" value="" style="rounded=0;whiteSpace=wrap;html=1;fontSize=13;align=center;" vertex="1" parent="1">
          <mxGeometry x="776.5" y="415" width="30" height="270.5" as="geometry" />
        </mxCell>
        <mxCell id="4cA7va0PqUtZ-8S5xUUY-89" value="" style="html=1;jettySize=18;whiteSpace=wrap;fontSize=13;fontFamily=helvetica;strokeColor=#333333;strokeOpacity=100;dashed=1;fixDash=1;dashPattern=16 6;strokeWidth=0.8;rounded=1;arcSize=24;edgeStyle=orthogonalEdgeStyle;startArrow=none;;endArrow=none;;exitX=0.5;exitY=1;exitPerimeter=0;" edge="1" parent="1" target="4cA7va0PqUtZ-8S5xUUY-88">
          <mxGeometry width="100" height="100" relative="1" as="geometry">
            <Array as="points" />
            <mxPoint x="791" y="930" as="targetPoint" />
            <mxPoint x="791.5" y="257" as="sourcePoint" />
          </mxGeometry>
        </mxCell>
        <mxCell id="4cA7va0PqUtZ-8S5xUUY-92" value="Inputs a command" style="endArrow=classic;html=1;fontSize=13;strokeColor=#333333;strokeWidth=0.8;" edge="1" parent="1">
          <mxGeometry y="-10" width="50" height="50" relative="1" as="geometry">
            <mxPoint x="290" y="370" as="sourcePoint" />
            <mxPoint x="510" y="370" as="targetPoint" />
            <mxPoint x="-1" as="offset" />
          </mxGeometry>
        </mxCell>
        <mxCell id="4cA7va0PqUtZ-8S5xUUY-93" value="saveFoodDatabase(fd)" style="endArrow=classic;html=1;fontSize=13;strokeColor=#333333;strokeWidth=0.8;exitX=1.013;exitY=0.09;exitDx=0;exitDy=0;exitPerimeter=0;entryX=0;entryY=0;entryDx=0;entryDy=0;" edge="1" parent="1" source="4cA7va0PqUtZ-8S5xUUY-85" target="4cA7va0PqUtZ-8S5xUUY-88">
          <mxGeometry x="0.0143" y="-14" width="50" height="50" relative="1" as="geometry">
            <mxPoint x="540" y="420" as="sourcePoint" />
            <mxPoint x="770" y="417" as="targetPoint" />
            <mxPoint as="offset" />
          </mxGeometry>
        </mxCell>
        <mxCell id="4cA7va0PqUtZ-8S5xUUY-106" value="String representation" style="html=1;jettySize=18;fontSize=13;strokeColor=#333333;strokeOpacity=100;dashed=1;fixDash=1;dashPattern=16 6;strokeWidth=0.8;rounded=1;arcSize=24;edgeStyle=orthogonalEdgeStyle;startArrow=none;;endArrow=block;endFill=1;;exitX=-0.012;exitY=0.982;exitPerimeter=0;" edge="1" parent="1">
          <mxGeometry x="-0.0062" y="10" relative="1" as="geometry">
            <mxPoint x="1050.1399999999999" y="666.5799999999999" as="sourcePoint" />
            <mxPoint x="806.5" y="669" as="targetPoint" />
            <Array as="points">
              <mxPoint x="1050" y="669" />
            </Array>
            <mxPoint as="offset" />
          </mxGeometry>
        </mxCell>
        <mxCell id="4cA7va0PqUtZ-8S5xUUY-98" value="" style="html=1;jettySize=18;whiteSpace=wrap;fontSize=13;fontFamily=helvetica;strokeColor=#333333;strokeOpacity=100;dashed=1;fixDash=1;dashPattern=16 6;strokeWidth=0.8;rounded=1;arcSize=24;edgeStyle=orthogonalEdgeStyle;startArrow=none;;endArrow=none;;exitX=0.5;exitY=1;exitPerimeter=0;" edge="1" parent="1" target="4cA7va0PqUtZ-8S5xUUY-97">
          <mxGeometry width="100" height="100" relative="1" as="geometry">
            <Array as="points" />
            <mxPoint x="1065" y="930" as="targetPoint" />
            <mxPoint x="1065.5" y="255" as="sourcePoint" />
          </mxGeometry>
        </mxCell>
        <mxCell id="4cA7va0PqUtZ-8S5xUUY-85" value="" style="rounded=0;whiteSpace=wrap;html=1;fontSize=13;align=center;" vertex="1" parent="1">
          <mxGeometry x="509.5" y="370" width="30" height="520" as="geometry" />
        </mxCell>
        <mxCell id="4cA7va0PqUtZ-8S5xUUY-99" value="" style="html=1;jettySize=18;whiteSpace=wrap;fontSize=13;fontFamily=helvetica;strokeColor=#333333;strokeOpacity=100;dashed=1;fixDash=1;dashPattern=16 6;strokeWidth=0.8;rounded=0;startArrow=none;;endArrow=none;;exitX=0.5;exitY=1;exitPerimeter=0;" edge="1" parent="1" target="4cA7va0PqUtZ-8S5xUUY-85">
          <mxGeometry width="100" height="100" relative="1" as="geometry">
            <Array as="points" />
            <mxPoint x="524" y="930" as="targetPoint" />
            <mxPoint x="524.5" y="255" as="sourcePoint" />
          </mxGeometry>
        </mxCell>
        <mxCell id="4cA7va0PqUtZ-8S5xUUY-109" style="html=1;jettySize=18;whiteSpace=wrap;fontSize=13;strokeColor=#333333;strokeOpacity=100;dashed=1;fixDash=1;dashPattern=16 6;strokeWidth=0.8;rounded=1;arcSize=24;edgeStyle=orthogonalEdgeStyle;startArrow=none;;endArrow=block;endFill=1;;exitX=1;exitY=1;exitDx=0;exitDy=0;entryX=0.993;entryY=0.943;entryDx=0;entryDy=0;entryPerimeter=0;" edge="1" parent="1" source="4cA7va0PqUtZ-8S5xUUY-86" target="4cA7va0PqUtZ-8S5xUUY-85">
          <mxGeometry relative="1" as="geometry">
            <mxPoint x="773.6399999999999" y="890" as="sourcePoint" />
            <mxPoint x="580" y="892" as="targetPoint" />
            <Array as="points">
              <mxPoint x="580" y="820" />
              <mxPoint x="580" y="860" />
            </Array>
          </mxGeometry>
        </mxCell>
        <mxCell id="4cA7va0PqUtZ-8S5xUUY-110" style="html=1;jettySize=18;whiteSpace=wrap;fontSize=13;strokeColor=#333333;strokeOpacity=100;dashed=1;fixDash=1;dashPattern=16 6;strokeWidth=0.8;rounded=1;arcSize=24;edgeStyle=orthogonalEdgeStyle;startArrow=none;;endArrow=block;endFill=1;;exitX=-0.012;exitY=0.982;exitPerimeter=0;" edge="1" parent="1">
          <mxGeometry relative="1" as="geometry">
            <mxPoint x="776.4999999999999" y="683.6400000000001" as="sourcePoint" />
            <mxPoint x="540" y="685" as="targetPoint" />
            <Array as="points">
              <mxPoint x="706.36" y="685.44" />
              <mxPoint x="706.36" y="685.44" />
            </Array>
          </mxGeometry>
        </mxCell>
        <mxCell id="4cA7va0PqUtZ-8S5xUUY-86" value="" style="rounded=0;whiteSpace=wrap;html=1;fontSize=13;align=center;" vertex="1" parent="1">
          <mxGeometry x="530" y="760" width="30" height="60" as="geometry" />
        </mxCell>
        <mxCell id="4cA7va0PqUtZ-8S5xUUY-97" value="" style="rounded=0;whiteSpace=wrap;html=1;fontSize=13;align=center;" vertex="1" parent="1">
          <mxGeometry x="1050.5" y="431" width="30" height="239" as="geometry" />
        </mxCell>
        <mxCell id="4cA7va0PqUtZ-8S5xUUY-122" value="[all foods]" style="text;align=center;fontStyle=0;verticalAlign=middle;spacingLeft=3;spacingRight=3;strokeColor=none;rotatable=0;points=[[0,0.5],[1,0.5]];portConstraint=eastwest;fontSize=11;" vertex="1" parent="1">
          <mxGeometry x="910" y="460.5" width="178" height="26" as="geometry" />
        </mxCell>
        <mxCell id="4cA7va0PqUtZ-8S5xUUY-125" value=":FitNUS" style="rounded=0;whiteSpace=wrap;html=1;fontSize=13;align=center;" vertex="1" parent="1">
          <mxGeometry x="464.5" y="200" width="120" height="60" as="geometry" />
        </mxCell>
        <mxCell id="4cA7va0PqUtZ-8S5xUUY-126" value="&amp;lt;&amp;lt;class&amp;gt;&amp;gt;&lt;br&gt;Storage" style="rounded=0;whiteSpace=wrap;html=1;fontSize=13;align=center;" vertex="1" parent="1">
          <mxGeometry x="731.5" y="200" width="120" height="60" as="geometry" />
        </mxCell>
        <mxCell id="4cA7va0PqUtZ-8S5xUUY-127" value="fd:FoodDatabase" style="rounded=0;whiteSpace=wrap;html=1;fontSize=13;align=center;" vertex="1" parent="1">
          <mxGeometry x="1005.5" y="193" width="120" height="60" as="geometry" />
        </mxCell>
        <mxCell id="4cA7va0PqUtZ-8S5xUUY-128" value=":Food" style="rounded=0;whiteSpace=wrap;html=1;fontSize=13;align=center;" vertex="1" parent="1">
          <mxGeometry x="1239" y="193" width="120" height="60" as="geometry" />
        </mxCell>
        <mxCell id="4cA7va0PqUtZ-8S5xUUY-130" value="" style="html=1;jettySize=18;whiteSpace=wrap;fontSize=13;fontFamily=helvetica;strokeColor=#333333;strokeOpacity=100;dashed=1;fixDash=1;dashPattern=16 6;strokeWidth=0.8;rounded=1;arcSize=24;edgeStyle=orthogonalEdgeStyle;startArrow=none;;endArrow=none;;exitX=0.5;exitY=1;exitDx=0;exitDy=0;" edge="1" parent="1" source="4cA7va0PqUtZ-8S5xUUY-134">
          <mxGeometry width="100" height="100" relative="1" as="geometry">
            <Array as="points" />
            <mxPoint x="1299" y="920" as="targetPoint" />
            <mxPoint x="1299" y="585" as="sourcePoint" />
          </mxGeometry>
        </mxCell>
        <mxCell id="4cA7va0PqUtZ-8S5xUUY-134" value="" style="rounded=0;whiteSpace=wrap;html=1;fontSize=13;align=center;" vertex="1" parent="1">
          <mxGeometry x="1284" y="470" width="30" height="60" as="geometry" />
        </mxCell>
        <mxCell id="4cA7va0PqUtZ-8S5xUUY-135" value="" style="html=1;jettySize=18;whiteSpace=wrap;fontSize=13;fontFamily=helvetica;strokeColor=#333333;strokeOpacity=100;dashed=1;fixDash=1;dashPattern=16 6;strokeWidth=0.8;rounded=1;arcSize=24;edgeStyle=orthogonalEdgeStyle;startArrow=none;;endArrow=none;;exitX=0.5;exitY=1;exitDx=0;exitDy=0;" edge="1" parent="1" source="4cA7va0PqUtZ-8S5xUUY-128" target="4cA7va0PqUtZ-8S5xUUY-134">
          <mxGeometry width="100" height="100" relative="1" as="geometry">
            <Array as="points" />
            <mxPoint x="1299" y="920" as="targetPoint" />
            <mxPoint x="1299" y="253" as="sourcePoint" />
          </mxGeometry>
        </mxCell>
        <mxCell id="4cA7va0PqUtZ-8S5xUUY-136" value="" style="rounded=0;whiteSpace=wrap;html=1;fontSize=13;align=center;" vertex="1" parent="1">
          <mxGeometry x="1284" y="560" width="30" height="60" as="geometry" />
        </mxCell>
        <mxCell id="4cA7va0PqUtZ-8S5xUUY-139" value="getName()" style="endArrow=classic;html=1;fontSize=13;strokeColor=#333333;strokeWidth=0.8;entryX=0;entryY=0;entryDx=0;entryDy=0;" edge="1" parent="1" target="4cA7va0PqUtZ-8S5xUUY-134">
          <mxGeometry x="-0.0196" y="-10" width="50" height="50" relative="1" as="geometry">
            <mxPoint x="1080" y="470" as="sourcePoint" />
            <mxPoint x="1140" y="520" as="targetPoint" />
            <mxPoint as="offset" />
          </mxGeometry>
        </mxCell>
        <UserObject label="" lucidchartObjectId="-fik3cqMJuKQ" id="4cA7va0PqUtZ-8S5xUUY-140">
          <mxCell style="html=1;jettySize=18;whiteSpace=wrap;fontSize=13;strokeColor=#333333;strokeOpacity=100;dashed=1;fixDash=1;dashPattern=16 6;strokeWidth=0.8;rounded=1;arcSize=24;edgeStyle=orthogonalEdgeStyle;startArrow=none;;endArrow=block;endFill=1;;exitX=0;exitY=1;exitDx=0;exitDy=0;" edge="1" parent="1" source="4cA7va0PqUtZ-8S5xUUY-134" target="4cA7va0PqUtZ-8S5xUUY-97">
            <mxGeometry x="0.0221" y="10" width="100" height="100" relative="1" as="geometry">
              <Array as="points">
                <mxPoint x="1140" y="530" />
                <mxPoint x="1140" y="530" />
              </Array>
              <mxPoint x="1349.25" y="550.3210000000001" as="sourcePoint" />
              <mxPoint x="1110" y="550" as="targetPoint" />
              <mxPoint as="offset" />
            </mxGeometry>
          </mxCell>
        </UserObject>
        <mxCell id="4cA7va0PqUtZ-8S5xUUY-141" value="getCalories()" style="endArrow=classic;html=1;fontSize=13;strokeColor=#333333;strokeWidth=0.8;entryX=0;entryY=0;entryDx=0;entryDy=0;" edge="1" parent="1">
          <mxGeometry x="-0.0245" y="-10" width="50" height="50" relative="1" as="geometry">
            <mxPoint x="1080.5" y="560" as="sourcePoint" />
            <mxPoint x="1284.5" y="560" as="targetPoint" />
            <mxPoint as="offset" />
          </mxGeometry>
        </mxCell>
        <UserObject label="" lucidchartObjectId="-fik3cqMJuKQ" id="4cA7va0PqUtZ-8S5xUUY-142">
          <mxCell style="html=1;jettySize=18;whiteSpace=wrap;fontSize=13;strokeColor=#333333;strokeOpacity=100;dashed=1;fixDash=1;dashPattern=16 6;strokeWidth=0.8;rounded=1;arcSize=24;edgeStyle=orthogonalEdgeStyle;startArrow=none;;endArrow=block;endFill=1;;exitX=0;exitY=1;exitDx=0;exitDy=0;" edge="1" parent="1">
            <mxGeometry width="100" height="100" relative="1" as="geometry">
              <Array as="points">
                <mxPoint x="1140" y="620" />
                <mxPoint x="1140" y="620" />
              </Array>
              <mxPoint x="1284" y="620" as="sourcePoint" />
              <mxPoint x="1080.5" y="620" as="targetPoint" />
            </mxGeometry>
          </mxCell>
        </UserObject>
      </root>
    </mxGraphModel>
  </diagram>
</mxfile>
